<svg width="120" height="150" viewBox="0 0 120 150" xmlns="http://www.w3.org/2000/svg">
  <!-- Fire base -->
  <ellipse cx="60" cy="140" rx="40" ry="10" fill="#FF6B35" opacity="0.8"/>
  
  <!-- Main flame -->
  <path d="M60 140 Q40 100 50 80 Q45 60 55 50 Q60 40 65 50 Q75 60 70 80 Q80 100 60 140" 
        fill="#FF8C42" opacity="0.9"/>
  
  <!-- Inner flame -->
  <path d="M60 140 Q50 110 55 90 Q58 75 60 70 Q62 75 65 90 Q70 110 60 140" 
        fill="#FFB347" opacity="0.8"/>
  
  <!-- Core flame -->
  <path d="M60 140 Q55 120 58 100 Q59 85 60 80 Q61 85 62 100 Q65 120 60 140" 
        fill="#FFD700" opacity="0.7"/>
  
  <!-- Sparks -->
  <circle cx="45" cy="70" r="2" fill="#FFD700" opacity="0.8"/>
  <circle cx="75" cy="75" r="1.5" fill="#FFD700" opacity="0.8"/>
  <circle cx="50" cy="60" r="1" fill="#FFD700" opacity="0.8"/>
  <circle cx="70" cy="65" r="1.5" fill="#FFD700" opacity="0.8"/>
</svg>


