<svg width="200" height="200" viewBox="0 0 200 200" xmlns="http://www.w3.org/2000/svg">
  <!-- Sun rays -->
  <rect x="98" y="0" width="4" height="30" fill="#FFD700" transform="rotate(0 100 100)"/>
  <rect x="98" y="0" width="4" height="30" fill="#FFD700" transform="rotate(45 100 100)"/>
  <rect x="98" y="0" width="4" height="30" fill="#FFD700" transform="rotate(90 100 100)"/>
  <rect x="98" y="0" width="4" height="30" fill="#FFD700" transform="rotate(135 100 100)"/>
  <rect x="98" y="0" width="4" height="30" fill="#FFD700" transform="rotate(180 100 100)"/>
  <rect x="98" y="0" width="4" height="30" fill="#FFD700" transform="rotate(225 100 100)"/>
  <rect x="98" y="0" width="4" height="30" fill="#FFD700" transform="rotate(270 100 100)"/>
  <rect x="98" y="0" width="4" height="30" fill="#FFD700" transform="rotate(315 100 100)"/>
  
  <!-- Main sun circle -->
  <circle cx="100" cy="100" r="50" fill="#FFD700"/>
  <circle cx="100" cy="100" r="45" fill="#FFA500"/>
  <circle cx="100" cy="100" r="40" fill="#FFD700"/>
  
  <!-- Sun face details (optional) -->
  <circle cx="90" cy="95" r="4" fill="#432818"/>
  <circle cx="110" cy="95" r="4" fill="#432818"/>
  <path d="M85 110 Q100 115 115 110" stroke="#432818" stroke-width="3" fill="none" stroke-linecap="round"/>
</svg>


